# AST/ASF file generated using VICON BodyLanguage
# -----------------------------------------------
:version 1.10
:name VICON
:units
  mass 1.0
  length 0.45
  angle deg
:documentation
   .ast/.asf automatically generated from VICON data using
   VICON BodyBuilder and BodyLanguage model FoxedUp or BRILLIANT.MOD
:root
   order TX TY TZ RX RY RZ
   axis XYZ
   position 0 0 0  
   orientation 0 0 0 
:bonedata
  begin
     id 1 
     name lhipjoint
     direction 0.662698 -0.695252 0.27831 
     length 2.53073 
     axis 0 0 0  XYZ
  end
  begin
     id 2 
     name lfemur
     direction 0.34202 -0.939693 0  
     length 7.16147  
     axis 0 0 20  XYZ
    dof rx ry rz
    limits (-160.0 20.0)
           (-70.0 70.0)
           (-60.0 70.0)
  end
  begin
     id 3 
     name ltibia
     direction 0.34202 -0.939693 0   
     length 7.63967   
     axis 0 0 20   XYZ
    dof rx
    limits (-10.0 170.0)
  end
  begin
     id 4 
     name lfoot
     direction 0.0938457 -0.257721 0.961651   
     length 1.89793   
     axis -90 7.62852e-016 20   XYZ
    dof rx rz
    limits (-45.0 90.0)
           (-70.0 20.0)
  end
  begin
     id 5 
     name ltoes
     direction -0.00116841 -0.0030592 0.999995   
     length 0.955649   
     axis -90 7.62852e-016 20   XYZ
    dof rx
    limits (-90.0 20.0)
  end
  begin
     id 6 
     name rhipjoint
     direction -0.649445 -0.705948 0.282592   
     length 2.49238  
     axis 0 0 0  XYZ 
  end
  begin
     id 7 
     name rfemur
     direction -0.34202 -0.939693 0   
     length 6.90728   
     axis 0 0 -20   XYZ
    dof rx ry rz
    limits (-160.0 20.0)
           (-70.0 70.0)
           (-70.0 60.0)
  end
  begin
     id 8 
     name rtibia
     direction -0.34202 -0.939693 0   
     length 7.72868   
     axis 0 0 -20   XYZ
    dof rx
    limits (-10.0 170.0)
 end
 begin
     id 9 
     name rfoot
     direction -0.0920068 -0.252865 0.963117   
     length 1.97476  
     axis -90 -7.62852e-016 -20   XYZ
    dof rx rz
    limits (-45.0 90.0)
           (-20.0 70.0)
  end
  begin
     id 10 
     name rtoes
     direction 0.000391322 0.00230649 0.999997   
     length 0.992641   
     axis -90 -7.62852e-016 -20   XYZ
    dof rx
    limits (-90.0 20.0)
  end
  begin
     id 11 
     name lowerback
     direction -0.00875327 0.998321 -0.0572635   
     length 2.20024   
     axis 0 0 0   XYZ
    dof rx ry rz
    limits (-20.0 45.0)
           (-30.0 30.0)
           (-30.0 30.0)
  end
  begin
     id 12 
     name upperback
     direction 0.00753931 0.999972 -0.000360425   
     length 2.20538   
     axis 0 0 0   XYZ
    dof rx ry rz
    limits (-20.0 45.0)
           (-30.0 30.0)
           (-30.0 30.0)
  end
  begin
     id 13 
     name thorax
     direction 0.0117767 0.999601 0.0256663   
     length 2.21508   
     axis 0 0 0   XYZ
    dof rx ry rz
    limits (-20.0 45.0)
           (-30.0 30.0)
           (-30.0 30.0)
  end
  begin
     id 14 
     name lowerneck
     direction 0.060228 0.994909 0.0807986   
     length 1.7607   
     axis 0 0 0   XYZ
    dof rx ry rz
    limits (-20.0 45.0)
           (-30.0 30.0)
           (-30.0 30.0)
  end
  begin
     id 15 
     name upperneck
     direction -0.0563647 0.959594 -0.275685   
     length 1.75612   
     axis 0 0 0   XYZ
    dof rx ry rz
    limits (-20.0 45.0)
           (-30.0 30.0)
           (-30.0 30.0)
  end
  begin
     id 16
     name head
     direction -0.0161544 0.99458 -0.102714  
     length 1.79288  
     axis 0 0 0   XYZ
    dof rx ry rz
    limits (-20.0 45.0)
           (-30.0 30.0)
           (-30.0 30.0)
  end
  begin
     id 17 
     name lclavicle
     direction 0.93913 0.332189 -0.087669  
     length 3.52087  
     axis 0 0 0   XYZ
    dof ry rz
    limits (-20.0 10.0)
           (0.0 20.0)
  end
  begin
     id 18 
     name lhumerus
     direction 1 -4.48974e-011 -2.70836e-027   
     length 5.35289   
     axis -180 -30 -90   XYZ
    dof rx ry rz
    limits (-60.0 90.0)
           (-90.0 90.0)
           (-90.0 90.0)
  end
  begin
     id 19
     name lradius
     direction 1 -4.48961e-011 -9.76021e-027   
     length 3.27727   
     axis -180 -30 -90   XYZ
    dof rx
    limits (-10.0 170.0)
  end
  begin
     id 20
     name lwrist
     direction 1 -4.49103e-011 -2.23668e-026   
     length 1.63864   
     axis 1.44924e-014 90 90   XYZ
    dof ry
    limits (-180.0 0.0)
 end
  begin
     id 21 
     name lhand
     direction 1 3.0697e-005 0.000161777   
     length 0.54443   
     axis 2.85318e-014 90 90   XYZ
    dof rx rz
    limits (-90.0 90.0)
           (-45.0 45.0)
  end
  begin
     id 22 
     name lfingers
     direction 1 -4.49027e-011 -8.9447e-026   
     length 0.438912   
     axis 5.70628e-014 90 90   XYZ
    dof rx
    limits (0.0 90.0)
  end
  begin
     id 23
     name lthumb
     direction 0.707058 2.6516e-005 0.707156   
     length 0.630274   
     axis -90 45 -3.53137e-014   XYZ
    dof rx rz
    limits (-45.0 45.0)
           (-45.0 45.0)
  end
  begin
     id 24 
     name rclavicle
     direction -0.95274 0.284984 -0.105215   
     length 3.43401  
     axis 0 0 0   XYZ 
    dof ry rz
    limits (-10.0 20.0)
           (-20.0 0.0)
  end
  begin
     id 25 
     name rhumerus
     direction -0.999999 -0.000575019 -0.00106829  
     length 5.52077   
     axis -180 30 90   XYZ
    dof rx ry rz
    limits (-90.0 60.0)
           (-90.0 90.0)
           (-90.0 90.0)
  end
  begin
     id 26 
     name rradius
     direction -1 -4.4879e-011 -6.35415e-027   
     length 3.32364   
     axis -180 30 90   XYZ
    dof rx
    limits (-10.0 170.0)
  end
  begin
     id 27 
     name rwrist
     direction -1 -4.49048e-011 -9.98542e-027   
     length 1.66182   
     axis 6.32482e-015 -90 -90   XYZ
    dof ry
    limits (-180.0 0.0)
  end
  begin
     id 28
     name rhand
     direction -1 -4.48978e-011 -1.99771e-026   
     length 0.732235   
     axis 1.27479e-014 -90 -90   XYZ
    dof rx rz
    limits (-90.0 90.0)
           (-45.0 45.0)
  end
  begin
     id 29
     name rfingers
     direction -1 -4.49144e-011 -3.99245e-026   
     length 0.590347   
     axis 2.5496e-014 -90 -90   XYZ
    dof rx
    limits (0.0 90.0)
  end
  begin
     id 30
     name rthumb
     direction -0.707107 -6.35121e-011 0.707107   
     length 0.847624   
     axis -90 -45 -2.82974e-014   XYZ
    dof rx rz
    limits (-45.0 45.0)
           (-45.0 45.0)
  end
:hierarchy
  begin
    root lhipjoint rhipjoint lowerback
    lhipjoint lfemur
    lfemur ltibia
    ltibia lfoot
    lfoot ltoes
    rhipjoint rfemur
    rfemur rtibia
    rtibia rfoot
    rfoot rtoes
    lowerback upperback
    upperback thorax
    thorax lowerneck lclavicle rclavicle
    lowerneck upperneck
    upperneck head
    lclavicle lhumerus
    lhumerus lradius
    lradius lwrist
    lwrist lhand lthumb
    lhand lfingers
    rclavicle rhumerus
    rhumerus rradius
    rradius rwrist
    rwrist rhand rthumb
    rhand rfingers
  end

#!OML:ASF G:\Work\Work\Patient Classification 1\Elijah\terrain1\Elijah.ASF
:FULLY-SPECIFIED
:DEGREES
2282
root 21.6598 16.9191 28.3525 719.91 -45.2775 367.153
lowerback 3.00148 -1.51274 -12.9105
upperback 2.65115 -2.29543 0.471489
thorax 1.64729 -1.39553 7.7778
lowerneck -9.07884 8.83015 13.4195
upperneck 35.3421 12.6944 -9.89392
head 15.5525 5.7864 -4.50406
rclavicle 1.13307e-014 4.89507e-014
rhumerus -48.0542 17.7797 -87.5639
rradius 43.3549
rwrist -7.28887
rhand -11.0173 21.1111
rfingers 7.12502
rthumb 15.0038 -8.32535
lclavicle 1.13307e-014 4.89507e-014
lhumerus -22.5745 -0.0815585 77.8538
lradius 66.5546
lwrist 8.61763
lhand -10.2258 19.1562
lfingers 7.12502
lthumb 15.7662 48.5341
rfemur -28.5089 -10.5628 14.41
rtibia 25.5527
rfoot -0.435247 22.7698
rtoes 27.0644
lfemur -5.44694 -6.79371 -12.9724
ltibia 34.7351
lfoot -15.44 -13.6692
ltoes -28.4139
2283
root 21.5368 16.9241 28.3529 720.365 -46.1128 366.728
lowerback 2.67179 -1.20118 -12.261
upperback 2.67211 -1.8208 0.607111
thorax 1.72271 -1.15343 7.54685
lowerneck -9.12475 8.60047 13.2089
upperneck 35.1988 12.3414 -9.77529
head 15.3979 5.62553 -4.47395
rclavicle -1.65824e-013 3.28492e-014
rhumerus -47.87 17.4519 -87.5323
rradius 43.2326
rwrist -6.96646
rhand -10.6428 21.6844
rfingers 7.12502
rthumb 15.3646 -7.72468
lclavicle -1.65824e-013 3.28492e-014
lhumerus -23.0774 0.322183 77.6798
lradius 65.9757
lwrist 9.08938
lhand -10.2517 19.5493
lfingers 7.12502
lthumb 15.7413 48.9292
rfemur -28.8399 -10.3557 15.3404
rtibia 26.0434
rfoot -0.529348 21.8581
rtoes 25.4338
lfemur -5.62374 -6.14627 -12.3344
ltibia 35.4557
lfoot -13.9296 -13.5689
ltoes -27.2244
2284
root 21.4197 16.9164 28.3444 721.143 -46.4755 365.813
lowerback 2.67249 -1.02265 -11.3377
upperback 2.64925 -1.57028 0.869598
thorax 1.61534 -1.00637 7.3048
lowerneck -9.26031 8.37193 12.89
upperneck 35.1621 11.9641 -9.51767
head 15.2937 5.45221 -4.36996
rclavicle -1.57599e-014 8.34896e-015
rhumerus -47.4695 17.0781 -87.4721
rradius 42.866
rwrist -6.55114
rhand -10.2453 22.3971
rfingers 7.12502
rthumb 15.7475 -6.98222
lclavicle -1.57599e-014 8.34896e-015
lhumerus -23.5964 0.738546 77.5328
lradius 65.207
lwrist 9.32447
lhand -10.6938 19.5914
lfingers 7.12502
lthumb 15.3154 49.0043
rfemur -28.9 -10.184 16.4582
rtibia 26.275
rfoot -0.774165 21.31
rtoes 23.6483
lfemur -6.09575 -5.52816 -11.2782
ltibia 36.5778
lfoot -12.6698 -13.4806
ltoes -27.5493
2285
root 21.2839 16.9232 28.3933 720.682 -47.0952 365.535
lowerback 2.61842 -0.887195 -10.9077
upperback 3.07674 -1.36141 1.2023
thorax 2.04824 -0.943285 7.40894
lowerneck -9.53385 8.28427 12.3636
upperneck 35.125 11.9043 -9.45251
head 15.2746 5.35861 -4.25162
rclavicle 1.67228e-014 -5.56597e-015
rhumerus -46.8744 17.5422 -87.2647
rradius 42.5979
rwrist -6.29112
rhand -10.1111 22.1669
rfingers 7.12502
rthumb 15.8767 -7.20219
lclavicle 1.67228e-014 -5.56597e-015
lhumerus -24.1036 1.86438 77.5924
lradius 64.2945
lwrist 9.39175
lhand -10.946 19.758
lfingers 7.12502
lthumb 15.0725 49.1893
rfemur -27.924 -10.6479 16.9106
rtibia 26.507
rfoot -0.142086 20.2698
rtoes 23.4253
lfemur -5.31302 -5.26767 -11.0718
ltibia 37.7229
lfoot -12.0215 -13.1625
ltoes -26.6079
2286
root 21.1805 16.9293 28.3907 721.066 -47.6449 365.463
lowerback 2.45917 -0.927659 -10.8219
upperback 3.01596 -1.40051 1.47177
thorax 2.08739 -0.963897 7.64611
lowerneck -9.62028 8.2827 12.2196
upperneck 34.9865 11.973 -9.61805
head 15.2391 5.34734 -4.27802
rclavicle 7.21091e-014 -6.75868e-015
rhumerus -46.6239 18.2699 -87.3474
rradius 42.7068
rwrist -5.95222
rhand -10.0039 21.6939
rfingers 7.12502
rthumb 15.9799 -7.66695
lclavicle 7.21091e-014 -6.75868e-015
lhumerus -24.7759 3.13964 77.2648
lradius 63.243
lwrist 9.57703
lhand -10.9259 19.8384
lfingers 7.12502
lthumb 15.0919 49.2683
rfemur -28.3389 -10.3793 17.3279
rtibia 26.7776
rfoot -0.347413 20.152
rtoes 23.7285
lfemur -6.17913 -4.87058 -10.7355
ltibia 39.1061
lfoot -10.7044 -12.8824
ltoes -25.3267
2287
root 21.0621 16.9251 28.3846 721.403 -48.2704 365.093
lowerback 2.43415 -1.14139 -10.9729
upperback 3.10008 -1.68698 1.86515
thorax 2.27307 -1.13207 8.15254
lowerneck -9.72148 8.45896 12.3581
upperneck 34.8273 12.3174 -10.0276
head 15.2919 5.45789 -4.40734
rclavicle 7.35006e-014 4.37326e-015
rhumerus -46.0752 19.4214 -87.5858
rradius 42.6203
rwrist -5.38704
rhand -9.86571 21.8158
rfingers 7.12502
rthumb 16.113 -7.5344
lclavicle 7.35006e-014 4.37326e-015
lhumerus -25.6171 5.16636 76.5944
lradius 62.1107
lwrist 9.68551
lhand -11.0804 19.8104
lfingers 7.12502
lthumb 14.9431 49.2514
rfemur -28.2888 -9.77569 17.9043
rtibia 26.8954
rfoot -0.57185 20.2258
rtoes 24.0251
lfemur -6.70141 -4.28474 -10.1956
ltibia 40.4584
lfoot -9.28109 -12.533
ltoes -26.3445
2288
root 20.9545 16.9192 28.3777 721.187 -48.8076 365.235
lowerback 2.71612 -1.2978 -11.3483
upperback 3.22784 -1.93442 2.123
thorax 2.33392 -1.28063 8.65134
lowerneck -9.98059 8.61227 12.5223
upperneck 34.7271 12.6011 -10.4042
head 15.4031 5.54498 -4.53485
rclavicle -5.22804e-014 1.74931e-014
rhumerus -45.3876 20.2897 -87.719
rradius 42.6069
rwrist -4.80115
rhand -9.75038 21.5874
rfingers 7.12502
rthumb 16.224 -7.75372
lclavicle -5.22804e-014 1.74931e-014
lhumerus -26.4608 7.04716 76.0133
lradius 61.0017
lwrist 9.75646
lhand -11.7705 20.083
lfingers 7.12502
lthumb 14.2781 49.5721
rfemur -27.9713 -9.49184 18.1389
rtibia 26.83
rfoot -0.663353 20.0142
rtoes 24.42
lfemur -7.37612 -3.8861 -10.0619
ltibia 42.2633
lfoot -7.7471 -12.1693
ltoes -27.2069
2289
root 20.8206 16.9463 28.4361 721.359 -49.4333 364.705
lowerback 2.22053 -1.38584 -10.5459
upperback 3.58696 -1.98072 2.30243
thorax 2.97452 -1.34234 8.36248
lowerneck -10.1271 8.70474 12.7848
upperneck 34.4804 12.8153 -10.8938
head 15.4263 5.60998 -4.73863
rclavicle -1.6201e-014 -7.95139e-016
rhumerus -44.9269 20.8735 -87.7263
rradius 42.8655
rwrist -4.34257
rhand -9.47881 21.5194
rfingers 7.12502
rthumb 16.4855 -7.80017
lclavicle -1.6201e-014 -7.95139e-016
lhumerus -27.174 8.31172 75.5588
lradius 59.7646
lwrist 9.84104
lhand -12.5584 20.5055
lfingers 7.12502
lthumb 13.5189 50.0467
rfemur -27.267 -10.1242 18.8614
rtibia 26.9627
rfoot 0.199258 19.108
rtoes 25.0057
lfemur -7.3164 -3.86291 -9.7565
ltibia 43.6996
lfoot -6.34478 -11.3784
ltoes -26.0333
2290
root 20.7201 16.9402 28.3938 722.977 -49.8522 362.735
lowerback 2.64839 -1.43147 -9.68066
upperback 3.55903 -2.09667 2.97147
thorax 2.71576 -1.37588 8.59859
lowerneck -10.1118 8.78512 13.0171
upperneck 34.1788 13.0455 -11.435
head 15.3922 5.67828 -4.95961
rclavicle -3.27995e-015 3.97569e-014
rhumerus -44.4625 21.3796 -87.6125
rradius 42.915
rwrist -3.7541
rhand -9.20236 22.2849
rfingers 7.12502
rthumb 16.7516 -7.01236
lclavicle -3.27995e-015 3.97569e-014
lhumerus -27.9777 9.59275 75.1196
lradius 58.4694
lwrist 9.84981
lhand -12.9385 21.0307
lfingers 7.12502
lthumb 13.1524 50.5959
rfemur -27.2726 -8.92934 20.6034
rtibia 26.9835
rfoot -0.348503 19.9147
rtoes 25.6304
lfemur -8.56854 -3.62043 -7.87867
ltibia 45.5785
lfoot -4.05161 -11.1776
ltoes -22.4777
2291
root 20.5917 16.9569 28.4715 720.479 -50.5712 365.315
lowerback 2.37623 -1.45534 -10.8296
upperback 3.92505 -2.09413 2.62087
thorax 3.30226 -1.45328 8.86989
lowerneck -10.2304 8.78562 12.8391
upperneck 34.0395 13.1092 -11.5732
head 15.3599 5.66258 -4.96684
rclavicle -2.25621e-014 1.07344e-014
rhumerus -44.071 21.761 -87.4326
rradius 43.2198
rwrist -3.21111
rhand -9.07163 22.6378
rfingers 7.12502
rthumb 16.8775 -6.64878
lclavicle -2.25621e-014 1.07344e-014
lhumerus -28.8439 10.8836 74.7033
lradius 57.1187
lwrist 9.77199
lhand -13.1822 21.3827
lfingers 7.12502
lthumb 12.9176 50.9629
rfemur -26.3355 -10.002 18.9903
rtibia 27.2584
rfoot 0.682558 18.7048
rtoes 26.4674
lfemur -7.99978 -4.08622 -10.1757
ltibia 46.8703
lfoot -2.998 -9.97208
ltoes -20.2393
2292
root 20.5027 16.9464 28.4507 721.821 -50.833 363.871
lowerback 2.63391 -1.5626 -9.98339
upperback 3.88415 -2.27421 3.10955
thorax 3.13248 -1.51789 8.91676
lowerneck -10.5453 8.77232 12.4259
upperneck 34.0088 13.097 -11.4108
head 15.3601 5.6111 -4.81388
rclavicle 7.45443e-014 1.90833e-014
rhumerus -43.8448 22.1845 -87.2985
rradius 44.0091
rwrist -2.97263
rhand -8.92739 22.418
rfingers 7.12502
rthumb 17.0163 -6.85668
lclavicle 7.45443e-014 1.90833e-014
lhumerus -29.5892 12.0727 74.284
lradius 55.6019
lwrist 9.49062
lhand -13.635 21.3106
lfingers 7.12502
lthumb 12.4811 50.9179
rfemur -26.5285 -9.42925 20.3077
rtibia 27.5247
rfoot 0.434133 19.2011
rtoes 27.1273
lfemur -9.51534 -3.93221 -8.89786
ltibia 48.7934
lfoot -1.35171 -9.96797
ltoes -20.468
2293
root 20.3799 16.9541 28.5125 720.459 -51.1617 365.326
lowerback 2.24429 -1.71674 -10.3392
upperback 4.19455 -2.43187 2.88179
thorax 3.72944 -1.65292 8.85331
lowerneck -10.7695 8.80203 12.2712
upperneck 33.8488 13.1165 -11.3346
head 15.3153 5.60268 -4.7336
rclavicle -4.11484e-014 1.19271e-014
rhumerus -43.433 22.5455 -87.2145
rradius 44.6446
rwrist -2.84939
rhand -8.78707 22.1684
rfingers 7.12502
rthumb 17.1514 -7.09457
lclavicle -4.11484e-014 1.19271e-014
lhumerus -30.2761 13.2363 73.8052
lradius 54.0402
lwrist 9.00084
lhand -14.1516 21.132
lfingers 7.12502
lthumb 11.983 50.769
rfemur -26.0455 -10.3028 19.4691
rtibia 28.0622
rfoot 1.17594 18.5896
rtoes 27.3877
lfemur -9.71973 -4.39431 -10.2869
ltibia 50.26
lfoot -0.644894 -9.47429
ltoes -22.1568
2294
root 20.2923 16.9444 28.4955 721.548 -51.4329 364.331
lowerback 2.31305 -1.82141 -9.69826
upperback 4.14357 -2.58958 3.2182
thorax 3.65191 -1.71234 8.84708
lowerneck -10.7295 8.81645 12.4185
upperneck 33.5401 13.1681 -11.5996
head 15.2061 5.61871 -4.85089
rclavicle -4.09496e-014 1.74931e-014
rhumerus -42.676 22.6288 -86.9982
rradius 44.751
rwrist -2.75718
rhand -8.75764 22.3852
rfingers 7.12502
rthumb 17.1797 -6.87531
lclavicle -4.09496e-014 1.74931e-014
lhumerus -31.0323 14.3224 73.4008
lradius 52.469
lwrist 8.29927
lhand -14.283 21.4135
lfingers 7.12502
lthumb 11.8562 51.0579
rfemur -26.3645 -9.65479 20.4656
rtibia 28.3315
rfoot 0.698107 19.0799
rtoes 27.6804
lfemur -11.4048 -4.49067 -9.46699
ltibia 52.2357
lfoot 0.121954 -9.83574
ltoes -23.5656
